<svg xmlns="http://www.w3.org/2000/svg" xmlns:xlink="http://www.w3.org/1999/xlink" xml:space="preserve" version="1.1" style="shape-rendering:geometricPrecision;text-rendering:geometricPrecision;image-rendering:optimizeQuality;" viewBox="0 0 100000 125000" x="0px" y="0px" fill-rule="evenodd" clip-rule="evenodd"><defs><style type="text/css">
   
    .fil0 {fill:black}
   
  </style></defs><g><path class="fil0" d="M42081 15130c8643,5923 21361,17680 28381,25355 7019,7676 8334,11274 5000,16889 -3332,5615 -11316,13247 -18731,19606 -7414,6362 -14255,11449 -19870,12721 -5615,1273 -10000,-1272 -11843,-4649 -1842,-3379 -1139,-7588 3815,-13465 4957,-5879 14170,-13424 17547,-18600 3378,-5177 920,-7983 -4473,-12809 -5396,-4826 -13732,-11668 -17153,-17194 -3422,-5528 -1929,-9740 1097,-11800 3027,-2062 7589,-1974 16230,3946z"/></g><text x="0" y="100015" fill="#000000" font-size="5px" font-weight="bold" font-family="'Helvetica Neue', Helvetica, Arial-Unicode, Arial, Sans-serif">Created by jamhuden</text><text x="0" y="100020" fill="#000000" font-size="5px" font-weight="bold" font-family="'Helvetica Neue', Helvetica, Arial-Unicode, Arial, Sans-serif">from the Noun Project</text></svg>